<svg xmlns="http://www.w3.org/2000/svg" viewBox="0 0 512 512" width="100%" height="100%">
  <!-- Red background or accent if needed, here just pure owl shape -->
  <path fill="#E63946" d="M256,0 C114.615,0 0,114.615 0,256 C0,397.385 114.615,512 256,512 C397.385,512 512,397.385 512,256 C512,114.615 397.385,0 256,0 Z M256,480 C132.288,480 32,379.712 32,256 C32,132.288 132.288,32 256,32 C379.712,32 480,132.288 480,256 C480,379.712 379.712,480 256,480 Z"/>
  <!-- Base Vector Owl Representation -->
  <path fill="#E63946" d="M383.05,178.6c-4.6,7.4-11,13.6-18.7,18.1c-15.3,8.9-38.3,10.6-58.8,3.9c-8.8-2.9-17-7.9-23.8-14.7 c-6.8-6.8-11.8-15-14.7-23.8c-6.7-20.5-5-43.5,3.9-58.8c4.5-7.7,10.7-14.1,18.1-18.7c-9-9.1-23.7-9.2-32.8-0.2L255,85.7l-1.2-1.3 c-9.1-9-23.8-8.9-32.8,0.2c7.4,4.6,13.6,11,18.1,18.7c8.9,15.3,10.6,38.3,3.9,58.8c-2.9,8.8-7.9,17-14.7,23.8 c-6.8,6.8-15,11.8-23.8,14.7c-20.5,6.7-43.5,5-58.8-3.9c-7.7-4.5-14.1-10.7-18.7-18.1c-5.8,11.7-8.9,24.8-8.9,38.4 c0,28.6,14.1,53.8,35.7,69.5c0,0,13.5,39.9,26.4,76.5C186,380.9,195,404,204,424.3C210.8,439.4,228.6,448,245.5,448 c1.2,0,2.3-0.1,3.5-0.2c2.2,0,4.4,0,6.6,0c2.2,0,4.4,0,6.6,0c1.2,0.1,2.4,0.2,3.5,0.2c16.9,0,34.7-8.6,41.5-23.7 c9-20.3,18-43.4,23.8-61.2c12.9-36.6,26.4-76.5,26.4-76.5c21.6-15.7,35.7-40.9,35.7-69.5C392,203.4,388.9,190.3,383.05,178.6z M204.3,212.7c-22.3-11.1-31.2-38-19.9-60.3c6.9-13.6,19.3-22.6,33.5-25.5c-4,13.8-3.4,28.7,2.2,42.2c7,16.8,20.2,29.3,36.5,35.2 C242.8,220.1,221.7,221.5,204.3,212.7z M255.4,242L255.4,242c-2.8,0-5.1-2.3-5.1-5.1v-12.7c0-2.8,2.3-5.1,5.1-5.1h0 c2.8,0,5.1,2.3,5.1,5.1v12.7C260.4,239.7,258.1,242,255.4,242z M273.7,204.4c16.3-5.9,29.5-18.4,36.5-35.2c5.6-13.5,6.2-28.3,2.2-42.2 c14.2,3,26.6,11.9,33.5,25.5c11.3,22.3,2.4,49.2-19.9,60.3C308.6,221.5,287.5,220.1,273.7,204.4z"/>
</svg>
